<svg width="76" height="76" viewBox="0 0 76 76" fill="none" xmlns="http://www.w3.org/2000/svg">
<rect x="0.558594" width="75.1885" height="75.1885" rx="37.5942" fill="url(#paint0_linear_206_4823)"/>
<rect x="8.75195" y="8.11572" width="58.7186" height="58.7186" rx="29.3593" fill="#012347"/>
<g clip-path="url(#clip0_206_4823)">
<path d="M36.3916 43.3469C37.036 36.7589 37.036 36.7589 32.4531 35.8996C35.3174 32.3192 37.9669 29.0252 40.8313 25.3732C41.5473 27.0918 40.8313 28.0227 40.4732 28.9536C39.6855 31.1019 39.1843 32.9637 42.6215 32.8205C44.3401 32.7489 44.3401 33.823 43.4092 34.8971C41.1177 37.6898 38.7546 40.4825 36.3916 43.3469Z" fill="white"/>
<path d="M46.0587 42.7024C42.9079 43.8481 43.4808 48.6459 39.4707 48.7891C40.1868 50.2212 42.1918 49.7916 42.1918 51.2237C42.1918 52.9423 40.1152 52.2979 39.2559 53.3004C42.8363 55.5918 38.1102 57.2388 38.1102 57.2388C38.1102 57.2388 38.325 56.5227 37.6805 55.377C37.2509 54.5893 36.32 54.7325 36.0335 54.5893C31.6654 52.7275 34.0285 51.7966 36.5348 51.0805C36.1767 49.5052 33.4556 50.3644 33.8853 48.6459C34.2433 47.2853 36.0335 47.2137 37.2509 47.1421C39.4707 46.9989 40.8313 45.9247 42.0486 44.0629C42.6931 43.0604 44.1968 42.7024 45.3426 41.9863C48.1353 39.1936 49.7107 35.47 49.0662 31.4599C48.8514 30.529 48.5649 29.5981 48.1353 28.7388C47.4192 27.1634 46.2735 25.7313 44.8413 24.6572C43.3375 23.5114 41.5473 22.8669 39.6139 22.6521C38.6114 22.5089 37.5373 22.5089 36.4632 22.6521C32.8828 23.1534 29.8752 25.4448 28.3715 28.8104C27.7986 30.0278 27.4406 31.3883 27.3689 32.7489C27.0825 36.5441 28.8011 40.4825 32.1667 42.416L32.2383 42.4876C32.7396 42.774 33.3124 42.9888 33.8137 43.132C33.6705 43.4185 33.4556 43.7765 33.3124 44.0629C31.737 43.6333 30.3049 42.8456 29.1591 41.7715C27.7986 40.4825 26.8677 38.6923 26.2948 36.9021C25.8652 35.2551 25.722 33.4649 26.0084 31.7464C26.2232 30.0278 26.8677 28.3808 27.727 26.877C28.1566 26.3041 28.5147 25.8029 28.8727 25.3016C30.3765 23.5114 32.3815 22.1509 34.673 21.4348C39.4707 20.0026 44.9845 21.936 47.9921 25.8745C48.4217 26.4474 48.7798 27.0202 49.1378 27.5931C51.9305 32.6056 50.6416 38.6207 46.0587 42.7024Z" fill="white"/>
</g>
<defs>
<linearGradient id="paint0_linear_206_4823" x1="38.1528" y1="0" x2="38.1528" y2="75.1885" gradientUnits="userSpaceOnUse">
<stop stop-color="#F1F7FD"/>
<stop offset="1" stop-color="#5083C2"/>
</linearGradient>
<clipPath id="clip0_206_4823">
<rect width="24.7048" height="36.1621" fill="white" transform="translate(25.9375 21.0051)"/>
</clipPath>
</defs>
</svg>
