<svg width="1440" height="750" viewBox="0 0 1440 750" fill="none" xmlns="http://www.w3.org/2000/svg">
<g clip-path="url(#clip0_18_3493)">
<rect width="1441" height="750" fill="url(#paint0_linear_18_3493)"/>
<g style="mix-blend-mode:plus-lighter" opacity="0.4">
<g opacity="0.2">
<path d="M975.077 121.951L972.451 122.461L972.959 125.088L975.585 124.578L975.077 121.951Z" fill="#5BF7FF"/>
<path d="M993.396 114.323L990.77 114.832L991.278 117.459L993.904 116.95L993.396 114.323Z" fill="#5BF7FF"/>
<path d="M1001.57 112.711L998.947 113.22L999.455 115.847L1002.08 115.338L1001.57 112.711Z" fill="#5BF7FF"/>
<path d="M1018.14 98.6891L1013.36 99.6164L1013.87 102.243L1018.65 101.316L1018.14 98.6891Z" fill="#00ACEC"/>
<path d="M1026.25 107.951L1023.63 108.46L1024.13 111.087L1026.76 110.578L1026.25 107.951Z" fill="#5BF7FF"/>
<path d="M1042.74 104.706L1040.12 105.216L1040.62 107.843L1043.25 107.333L1042.74 104.706Z" fill="#5BF7FF"/>
<path d="M998.026 101.179L995.4 101.689L995.909 104.315L998.535 103.806L998.026 101.179Z" fill="#5BF7FF"/>
</g>
<g opacity="0.2">
<path d="M1049.75 125.09L1047.71 125.339L1047.96 127.382L1050 127.134L1049.75 125.09Z" fill="#5BF7FF"/>
<path d="M1063.97 120.318L1061.92 120.566L1062.17 122.61L1064.22 122.361L1063.97 120.318Z" fill="#5BF7FF"/>
<path d="M1070.31 119.536L1068.27 119.785L1068.51 121.829L1070.56 121.58L1070.31 119.536Z" fill="#5BF7FF"/>
<path d="M1083.52 109.745L1079.85 110.193L1080.09 112.237L1083.77 111.789L1083.52 109.745Z" fill="#00ACEC"/>
<path d="M1089.26 117.242L1087.22 117.491L1087.47 119.534L1089.51 119.285L1089.26 117.242Z" fill="#5BF7FF"/>
<path d="M1101.88 115.693L1099.83 115.942L1100.08 117.986L1102.13 117.737L1101.88 115.693Z" fill="#5BF7FF"/>
<path d="M1068.19 110.628L1066.15 110.877L1066.4 112.92L1068.44 112.671L1068.19 110.628Z" fill="#5BF7FF"/>
</g>
<path d="M636.605 67.8768L1245.55 1159.2" stroke="url(#paint1_linear_18_3493)" stroke-width="0.7484" stroke-miterlimit="10"/>
<path d="M745.813 67.911L1306.04 1047.07" stroke="url(#paint2_linear_18_3493)" stroke-width="0.7484" stroke-miterlimit="10"/>
<path d="M836.711 67.9418L1355.24 955.791" stroke="url(#paint3_linear_18_3493)" stroke-width="0.7484" stroke-miterlimit="10"/>
<path d="M913.617 67.943L1396.03 880.078" stroke="url(#paint4_linear_18_3493)" stroke-width="0.7484" stroke-miterlimit="10"/>
<path d="M979.458 67.9612L1430.39 816.306" stroke="url(#paint5_linear_18_3493)" stroke-width="0.7484" stroke-miterlimit="10"/>
<path d="M1036.54 67.9911L1459.79 761.776" stroke="url(#paint6_linear_18_3493)" stroke-width="0.7484" stroke-miterlimit="10"/>
<path d="M1086.27 67.612L1485.17 714.689" stroke="url(#paint7_linear_18_3493)" stroke-width="0.7484" stroke-miterlimit="10"/>
<path d="M1130.33 67.7001L1507.33 673.572" stroke="url(#paint8_linear_18_3493)" stroke-width="0.7484" stroke-miterlimit="10"/>
<path d="M1488.77 576.652L1093.33 1159.62" stroke="url(#paint9_linear_18_3493)" stroke-width="0.7484" stroke-miterlimit="10"/>
<path d="M1451.25 516.81L1019.59 1023.24" stroke="url(#paint10_linear_18_3493)" stroke-width="0.7484" stroke-miterlimit="10"/>
<path d="M1414.23 457.912L948.128 891.091" stroke="url(#paint11_linear_18_3493)" stroke-width="0.7484" stroke-miterlimit="10"/>
<path d="M1377.83 399.782L878.764 762.823" stroke="url(#paint12_linear_18_3493)" stroke-width="0.7484" stroke-miterlimit="10"/>
<path d="M1341.88 342.511L811.52 638.373" stroke="url(#paint13_linear_18_3493)" stroke-width="0.7484" stroke-miterlimit="10"/>
<path d="M1306.47 286.053L746.217 517.614" stroke="url(#paint14_linear_18_3493)" stroke-width="0.7484" stroke-miterlimit="10"/>
<path d="M1271.53 230.388L682.788 400.31" stroke="url(#paint15_linear_18_3493)" stroke-width="0.7484" stroke-miterlimit="10"/>
<path d="M1237.15 175.471L621.185 286.374" stroke="url(#paint16_linear_18_3493)" stroke-width="0.7484" stroke-miterlimit="10"/>
<path d="M1203.15 121.392L561.341 175.57" stroke="url(#paint17_linear_18_3493)" stroke-width="0.7484" stroke-miterlimit="10"/>
<path d="M503.122 67.8568L1169.67 67.975L1526.88 637.393L1169.44 1300.4L503.122 67.8568Z" stroke="url(#paint18_linear_18_3493)" stroke-width="0.7484" stroke-miterlimit="10"/>
<path opacity="0.4" d="M1106.51 278.78L1062.91 206.848L1116.07 197.976L1155.99 263.735L1106.51 278.78Z" fill="url(#paint19_linear_18_3493)"/>
<path opacity="0.4" d="M1087.89 301.093L1044.28 229.161L1097.44 220.289L1137.36 286.049L1087.89 301.093Z" fill="url(#paint20_linear_18_3493)"/>
<path opacity="0.15" d="M1288.77 434.805L1331.94 505.596L1290.78 535.504L1322.07 587.882L1414.54 614.334L1425.19 579.993L1327.85 413.665L1288.77 434.805Z" fill="url(#paint21_linear_18_3493)"/>
<path opacity="0.06" d="M1318.65 360.451L1229.92 408.075L1297.7 518.972L1382.11 462.606L1318.65 360.451Z" fill="url(#paint22_linear_18_3493)"/>
<path opacity="0.1" d="M1235.21 215.748L1197.54 227.699L1235.87 289.803L1272.02 274.867L1235.21 215.748Z" fill="url(#paint23_linear_18_3493)"/>
<path d="M1094.65 370.288C1210.88 321.995 1305.63 284.139 1306.31 285.644C1306.92 287.128 1213.18 327.524 1096.98 375.751C980.75 424.044 886 461.9 885.383 460.416C884.701 458.911 978.357 418.561 1094.65 370.288Z" fill="url(#paint24_radial_18_3493)"/>
<path d="M1281.96 576.447C1374.82 491.451 1451.02 423.561 1452.15 424.774C1453.28 425.987 1378.9 495.878 1286 580.788C1193.15 665.785 1116.94 733.675 1115.81 732.461C1114.72 731.334 1189.11 661.443 1281.96 576.447Z" fill="url(#paint25_radial_18_3493)"/>
<path d="M1034.02 295.591C1155 260.913 1253.45 234.048 1253.89 235.622C1254.34 237.197 1156.68 266.607 1035.7 301.285C914.719 335.963 816.269 362.829 815.824 361.254C815.358 359.745 913.018 330.334 1034.02 295.591Z" fill="url(#paint26_radial_18_3493)"/>
<path d="M965.973 221.181C1089.81 198.813 1190.47 181.971 1190.74 183.636C1191.03 185.236 1090.87 204.672 967.028 227.04C843.189 249.408 742.533 266.251 742.26 264.586C741.966 262.986 842.134 243.549 965.973 221.181Z" fill="url(#paint27_radial_18_3493)"/>
<path d="M1064.41 316.151C1128.9 424.231 1180.08 512.518 1178.66 513.373C1177.25 514.228 1123.78 427.313 1059.29 319.233C994.79 211.153 943.615 122.866 945.029 122.011C946.443 121.157 999.91 208.072 1064.41 316.151Z" fill="url(#paint28_radial_18_3493)"/>
<path d="M1031.14 394.701C1094.31 503.59 1144.35 592.53 1142.89 593.299C1141.47 594.154 1089.16 506.52 1025.97 397.696C962.872 288.827 912.834 199.887 914.248 199.032C915.641 198.243 968.038 285.832 1031.14 394.701Z" fill="url(#paint29_radial_18_3493)"/>
<path d="M959.228 434.395C1021.97 543.511 1071.75 632.587 1070.27 633.421C1068.85 634.276 1016.82 546.441 954.063 437.391C891.325 328.276 841.609 239.22 843.023 238.365C844.482 237.597 896.47 325.346 959.228 434.395Z" fill="url(#paint30_radial_18_3493)"/>
<path d="M1196.76 424.446C1261.26 532.525 1312.8 620.566 1311.9 621.149C1310.93 621.712 1257.9 534.571 1193.4 426.492C1128.84 318.391 1077.3 230.351 1078.2 229.767C1079.17 229.204 1132.2 316.345 1196.76 424.446Z" fill="url(#paint31_radial_18_3493)"/>
<path d="M1195.34 420.699C1305.36 359.56 1395.13 311.11 1395.99 312.524C1396.75 313.984 1308.28 364.707 1198.25 425.912C1088.3 487.071 998.457 535.501 997.689 534.041C996.835 532.627 1085.39 481.859 1195.34 420.699Z" fill="url(#paint32_radial_18_3493)"/>
<path d="M1227.05 506.468C1328.45 431.882 1411.47 372.572 1412.43 373.876C1413.39 375.179 1331.98 436.712 1230.58 511.299C1129.17 585.885 1046.15 645.195 1045.19 643.891C1044.19 642.502 1125.6 580.969 1227.05 506.468Z" fill="url(#paint33_radial_18_3493)"/>
<path opacity="0.8" d="M1319.6 558.81C1309.19 555.579 1302.91 545.729 1305.67 536.816C1308.43 527.903 1319.12 523.315 1329.6 526.566C1340.02 529.796 1346.3 539.646 1343.53 548.559C1340.77 557.472 1330.08 562.06 1319.6 558.81Z" fill="url(#paint34_radial_18_3493)"/>
<path opacity="0.8" d="M924.819 251.306C911.98 247.324 904.329 235.181 907.723 224.236C911.118 213.292 924.298 207.609 937.137 211.591C949.976 215.573 957.627 227.717 954.233 238.661C950.818 249.671 937.658 255.288 924.819 251.306Z" fill="url(#paint35_radial_18_3493)"/>
<path d="M1085.59 371.717C1084.63 376.663 1087.7 381.351 1092.38 382.229C1097.06 383.106 1101.6 379.842 1102.55 374.895C1103.51 369.949 1100.44 365.261 1095.76 364.383C1091.01 363.485 1086.48 366.75 1085.59 371.717Z" fill="url(#paint36_radial_18_3493)"/>
<path d="M1133.74 453.535C1132.78 458.482 1135.85 463.17 1140.54 464.047C1145.22 464.925 1149.75 461.661 1150.71 456.714C1151.67 451.767 1148.6 447.079 1143.92 446.202C1139.17 445.304 1134.64 448.568 1133.74 453.535Z" fill="url(#paint37_radial_18_3493)"/>
<path d="M1182.49 534.604C1181.53 539.55 1184.6 544.238 1189.28 545.116C1193.96 545.993 1198.5 542.729 1199.45 537.782C1200.41 532.836 1197.34 528.148 1192.66 527.27C1187.98 526.393 1183.43 529.722 1182.49 534.604Z" fill="url(#paint38_radial_18_3493)"/>
<path d="M1039.41 293.025C1038.45 297.972 1041.52 302.659 1046.2 303.537C1050.88 304.415 1055.42 301.15 1056.38 296.203C1057.33 291.257 1054.27 286.569 1049.58 285.691C1044.9 284.814 1040.37 288.078 1039.41 293.025Z" fill="url(#paint39_radial_18_3493)"/>
<path d="M994.587 215.975C993.627 220.922 996.697 225.61 1001.38 226.487C1006.06 227.365 1010.59 224.101 1011.55 219.154C1012.51 214.207 1009.44 209.519 1004.76 208.642C1000.08 207.764 995.461 211.074 994.587 215.975Z" fill="url(#paint40_radial_18_3493)"/>
<path d="M948.762 140.77C947.802 145.717 950.872 150.404 955.555 151.282C960.237 152.16 964.768 148.895 965.728 143.949C966.688 139.002 963.618 134.314 958.935 133.437C954.187 132.539 949.636 135.869 948.762 140.77Z" fill="url(#paint41_radial_18_3493)"/>
<path d="M1191 330.988C1190.35 334.235 1192.39 337.382 1195.46 337.903C1198.51 338.49 1201.54 336.342 1202.13 333.075C1202.77 329.827 1200.73 326.68 1197.66 326.159C1194.61 325.573 1191.64 327.741 1191 330.988Z" fill="url(#paint42_radial_18_3493)"/>
<path d="M1150.43 262.659C1149.79 265.907 1151.83 269.054 1154.9 269.575C1157.95 270.161 1160.98 268.014 1161.56 264.746C1162.21 261.499 1160.17 258.352 1157.1 257.831C1154.03 257.31 1151 259.457 1150.43 262.659Z" fill="url(#paint43_radial_18_3493)"/>
<path d="M1109.79 196.459C1109.14 199.707 1111.18 202.854 1114.25 203.375C1117.3 203.961 1120.33 201.814 1120.92 198.546C1121.56 195.299 1119.52 192.152 1116.45 191.631C1113.4 191.044 1110.43 193.212 1109.79 196.459Z" fill="url(#paint44_radial_18_3493)"/>
<path d="M1069.07 130.239C1068.43 133.486 1070.47 136.634 1073.54 137.155C1076.58 137.741 1079.62 135.594 1080.2 132.326C1080.85 129.079 1078.81 125.931 1075.74 125.41C1072.69 124.824 1069.72 126.992 1069.07 130.239Z" fill="url(#paint45_radial_18_3493)"/>
<path d="M1233.55 397.994C1232.9 401.241 1234.94 404.388 1238.01 404.909C1241.06 405.496 1244.09 403.348 1244.68 400.081C1245.33 396.833 1243.29 393.686 1240.22 393.165C1237.17 392.579 1234.2 394.747 1233.55 397.994Z" fill="url(#paint46_radial_18_3493)"/>
<path d="M1276.33 469.596C1275.68 472.843 1277.72 475.99 1280.79 476.511C1283.86 477.033 1286.87 474.95 1287.45 471.683C1288.1 468.435 1286.06 465.288 1282.99 464.767C1279.94 464.181 1276.91 466.328 1276.33 469.596Z" fill="url(#paint47_radial_18_3493)"/>
<path opacity="0.6" d="M1268.76 298.57C1268.12 301.817 1270.16 304.964 1273.23 305.485C1276.28 306.072 1279.31 303.924 1279.89 300.656C1280.54 297.409 1278.5 294.262 1275.43 293.741C1272.36 293.22 1269.35 295.302 1268.76 298.57Z" fill="url(#paint48_radial_18_3493)"/>
<path opacity="0.6" d="M1232.27 240.268C1231.63 243.515 1233.67 246.662 1236.73 247.184C1239.78 247.77 1242.82 245.622 1243.4 242.355C1244.05 239.108 1242.01 235.96 1238.94 235.439C1235.89 234.853 1232.92 237.021 1232.27 240.268Z" fill="url(#paint49_radial_18_3493)"/>
<path opacity="0.6" d="M1306.73 359.053C1306.15 362.104 1307.98 364.973 1310.9 365.519C1313.76 366.045 1316.53 364.033 1317.12 360.982C1317.71 357.931 1315.87 355.062 1312.95 354.516C1310.16 354.011 1307.32 356.003 1306.73 359.053Z" fill="url(#paint50_radial_18_3493)"/>
<path opacity="0.6" d="M1196.21 180.807C1195.63 183.858 1197.47 186.727 1200.38 187.273C1203.24 187.799 1206.02 185.787 1206.6 182.736C1207.19 179.685 1205.35 176.816 1202.43 176.27C1199.58 175.745 1196.8 177.757 1196.21 180.807Z" fill="url(#paint51_radial_18_3493)"/>
<path opacity="0.6" d="M1160.22 122.517C1159.64 125.568 1161.47 128.437 1164.39 128.983C1167.25 129.508 1170.02 127.496 1170.61 124.446C1171.2 121.395 1169.36 118.526 1166.44 117.98C1163.57 117.52 1160.79 119.532 1160.22 122.517Z" fill="url(#paint52_radial_18_3493)"/>
</g>
</g>
<defs>
<linearGradient id="paint0_linear_18_3493" x1="2015.9" y1="-456.568" x2="-1476.93" y2="1489.19" gradientUnits="userSpaceOnUse">
<stop stop-color="#3F64B0"/>
<stop offset="0.259545" stop-color="#0F3260"/>
<stop offset="0.359075" stop-color="#143768"/>
<stop offset="0.559343" stop-color="#002347"/>
<stop offset="1" stop-color="#6B91F9"/>
</linearGradient>
<linearGradient id="paint1_linear_18_3493" x1="508.774" y1="479.47" x2="1373.38" y2="747.631" gradientUnits="userSpaceOnUse">
<stop stop-color="#5083C2"/>
<stop offset="1" stop-color="#5082C2" stop-opacity="0"/>
</linearGradient>
<linearGradient id="paint2_linear_18_3493" x1="631.678" y1="435.206" x2="1420.12" y2="679.742" gradientUnits="userSpaceOnUse">
<stop stop-color="#5083C2"/>
<stop offset="1" stop-color="#5082C2" stop-opacity="0"/>
</linearGradient>
<linearGradient id="paint3_linear_18_3493" x1="733.682" y1="399.494" x2="1458.23" y2="624.214" gradientUnits="userSpaceOnUse">
<stop stop-color="#5083C2"/>
<stop offset="1" stop-color="#5082C2" stop-opacity="0"/>
</linearGradient>
<linearGradient id="paint4_linear_18_3493" x1="819.707" y1="370.081" x2="1489.91" y2="577.945" gradientUnits="userSpaceOnUse">
<stop stop-color="#5083C2"/>
<stop offset="1" stop-color="#5082C2" stop-opacity="0"/>
</linearGradient>
<linearGradient id="paint5_linear_18_3493" x1="893.239" y1="345.443" x2="1516.65" y2="538.796" gradientUnits="userSpaceOnUse">
<stop stop-color="#5083C2"/>
<stop offset="1" stop-color="#5082C2" stop-opacity="0"/>
</linearGradient>
<linearGradient id="paint6_linear_18_3493" x1="956.816" y1="324.507" x2="1539.54" y2="505.239" gradientUnits="userSpaceOnUse">
<stop stop-color="#5083C2"/>
<stop offset="1" stop-color="#5082C2" stop-opacity="0"/>
</linearGradient>
<linearGradient id="paint7_linear_18_3493" x1="1012.08" y1="306.281" x2="1559.38" y2="476.026" gradientUnits="userSpaceOnUse">
<stop stop-color="#5083C2"/>
<stop offset="1" stop-color="#5082C2" stop-opacity="0"/>
</linearGradient>
<linearGradient id="paint8_linear_18_3493" x1="1061.03" y1="290.666" x2="1576.68" y2="450.597" gradientUnits="userSpaceOnUse">
<stop stop-color="#5083C2"/>
<stop offset="1" stop-color="#5082C2" stop-opacity="0"/>
</linearGradient>
<linearGradient id="paint9_linear_18_3493" x1="1192.92" y1="837.722" x2="1389.19" y2="898.596" gradientUnits="userSpaceOnUse">
<stop stop-color="#5083C2"/>
<stop offset="1" stop-color="#5082C2" stop-opacity="0"/>
</linearGradient>
<linearGradient id="paint10_linear_18_3493" x1="1109.95" y1="731.14" x2="1360.9" y2="808.971" gradientUnits="userSpaceOnUse">
<stop stop-color="#5083C2"/>
<stop offset="1" stop-color="#5082C2" stop-opacity="0"/>
</linearGradient>
<linearGradient id="paint11_linear_18_3493" x1="1029.64" y1="627.467" x2="1332.75" y2="721.478" gradientUnits="userSpaceOnUse">
<stop stop-color="#5083C2"/>
<stop offset="1" stop-color="#5082C2" stop-opacity="0"/>
</linearGradient>
<linearGradient id="paint12_linear_18_3493" x1="951.852" y1="526.577" x2="1304.76" y2="636.034" gradientUnits="userSpaceOnUse">
<stop stop-color="#5083C2"/>
<stop offset="1" stop-color="#5082C2" stop-opacity="0"/>
</linearGradient>
<linearGradient id="paint13_linear_18_3493" x1="876.482" y1="428.356" x2="1276.94" y2="552.558" gradientUnits="userSpaceOnUse">
<stop stop-color="#5083C2"/>
<stop offset="1" stop-color="#5082C2" stop-opacity="0"/>
</linearGradient>
<linearGradient id="paint14_linear_18_3493" x1="803.417" y1="332.691" x2="1249.29" y2="470.978" gradientUnits="userSpaceOnUse">
<stop stop-color="#5083C2"/>
<stop offset="1" stop-color="#5082C2" stop-opacity="0"/>
</linearGradient>
<linearGradient id="paint15_linear_18_3493" x1="732.556" y1="239.479" x2="1221.81" y2="391.223" gradientUnits="userSpaceOnUse">
<stop stop-color="#5083C2"/>
<stop offset="1" stop-color="#5082C2" stop-opacity="0"/>
</linearGradient>
<linearGradient id="paint16_linear_18_3493" x1="663.8" y1="148.621" x2="1194.52" y2="313.226" gradientUnits="userSpaceOnUse">
<stop stop-color="#5083C2"/>
<stop offset="1" stop-color="#5082C2" stop-opacity="0"/>
</linearGradient>
<linearGradient id="paint17_linear_18_3493" x1="597.06" y1="60.0248" x2="1167.42" y2="236.924" gradientUnits="userSpaceOnUse">
<stop stop-color="#5083C2"/>
<stop offset="1" stop-color="#5082C2" stop-opacity="0"/>
</linearGradient>
<linearGradient id="paint18_linear_18_3493" x1="386.987" y1="441.608" x2="1482.49" y2="781.38" gradientUnits="userSpaceOnUse">
<stop stop-color="#5083C2"/>
<stop offset="1" stop-color="#5082C2" stop-opacity="0"/>
</linearGradient>
<linearGradient id="paint19_linear_18_3493" x1="1058.24" y1="221.906" x2="1159.24" y2="253.232" gradientUnits="userSpaceOnUse">
<stop stop-color="#5083C2"/>
<stop offset="1" stop-color="#5082C2" stop-opacity="0"/>
</linearGradient>
<linearGradient id="paint20_linear_18_3493" x1="1039.63" y1="244.243" x2="1140.64" y2="275.569" gradientUnits="userSpaceOnUse">
<stop stop-color="#5083C2"/>
<stop offset="1" stop-color="#5082C2" stop-opacity="0"/>
</linearGradient>
<linearGradient id="paint21_linear_18_3493" x1="1273.28" y1="484.755" x2="1438.84" y2="536.105" gradientUnits="userSpaceOnUse">
<stop stop-color="#5083C2"/>
<stop offset="1" stop-color="#5082C2" stop-opacity="0"/>
</linearGradient>
<linearGradient id="paint22_linear_18_3493" x1="1227.86" y1="414.791" x2="1382.1" y2="462.627" gradientUnits="userSpaceOnUse">
<stop stop-color="#5083C2"/>
<stop offset="1" stop-color="#5082C2" stop-opacity="0"/>
</linearGradient>
<linearGradient id="paint23_linear_18_3493" x1="1193.77" y1="239.825" x2="1275.04" y2="265.032" gradientUnits="userSpaceOnUse">
<stop stop-color="#5083C2"/>
<stop offset="1" stop-color="#5082C2" stop-opacity="0"/>
</linearGradient>
<radialGradient id="paint24_radial_18_3493" cx="0" cy="0" r="1" gradientUnits="userSpaceOnUse" gradientTransform="translate(1095.77 373.062) rotate(-110.982) scale(2.97923 227.75)">
<stop stop-color="#FAFAFA"/>
<stop offset="0.0469493" stop-color="#EFF2FA"/>
<stop offset="0.0982115" stop-color="#E8EDFA"/>
<stop offset="0.1217" stop-color="#E1E6FA" stop-opacity="0.9668"/>
<stop offset="0.2262" stop-color="#C6C9FC" stop-opacity="0.8188"/>
<stop offset="0.3388" stop-color="#B1B4FD" stop-opacity="0.6593"/>
<stop offset="0.4619" stop-color="#A2A4FE" stop-opacity="0.4851"/>
<stop offset="0.6033" stop-color="#999BFF" stop-opacity="0.2848"/>
<stop offset="0.8045" stop-color="#9698FF" stop-opacity="0"/>
</radialGradient>
<radialGradient id="paint25_radial_18_3493" cx="0" cy="0" r="1" gradientUnits="userSpaceOnUse" gradientTransform="translate(1283.99 578.676) rotate(-130.882) scale(2.97885 227.78)">
<stop stop-color="#FAFAFA"/>
<stop offset="0.0469493" stop-color="#EFF2FA"/>
<stop offset="0.0982115" stop-color="#E8EDFA"/>
<stop offset="0.1217" stop-color="#E1E6FA" stop-opacity="0.9668"/>
<stop offset="0.2262" stop-color="#C6C9FC" stop-opacity="0.8188"/>
<stop offset="0.3388" stop-color="#B1B4FD" stop-opacity="0.6593"/>
<stop offset="0.4619" stop-color="#A2A4FE" stop-opacity="0.4851"/>
<stop offset="0.6033" stop-color="#999BFF" stop-opacity="0.2848"/>
<stop offset="0.8045" stop-color="#9698FF" stop-opacity="0"/>
</radialGradient>
<radialGradient id="paint26_radial_18_3493" cx="0" cy="0" r="1" gradientUnits="userSpaceOnUse" gradientTransform="translate(1034.85 298.488) rotate(-104.434) scale(2.97993 227.698)">
<stop stop-color="#FAFAFA"/>
<stop offset="0.0469493" stop-color="#EFF2FA"/>
<stop offset="0.0982115" stop-color="#E8EDFA"/>
<stop offset="0.1217" stop-color="#E1E6FA" stop-opacity="0.9668"/>
<stop offset="0.2262" stop-color="#C6C9FC" stop-opacity="0.8188"/>
<stop offset="0.3388" stop-color="#B1B4FD" stop-opacity="0.6593"/>
<stop offset="0.4619" stop-color="#A2A4FE" stop-opacity="0.4851"/>
<stop offset="0.6033" stop-color="#999BFF" stop-opacity="0.2848"/>
<stop offset="0.8045" stop-color="#9698FF" stop-opacity="0"/>
</radialGradient>
<radialGradient id="paint27_radial_18_3493" cx="0" cy="0" r="1" gradientUnits="userSpaceOnUse" gradientTransform="translate(966.498 224.117) rotate(-98.685) scale(2.9802 227.677)">
<stop stop-color="#FAFAFA"/>
<stop offset="0.0469493" stop-color="#EFF2FA"/>
<stop offset="0.0982115" stop-color="#E8EDFA"/>
<stop offset="0.1217" stop-color="#E1E6FA" stop-opacity="0.9668"/>
<stop offset="0.2262" stop-color="#C6C9FC" stop-opacity="0.8188"/>
<stop offset="0.3388" stop-color="#B1B4FD" stop-opacity="0.6593"/>
<stop offset="0.4619" stop-color="#A2A4FE" stop-opacity="0.4851"/>
<stop offset="0.6033" stop-color="#999BFF" stop-opacity="0.2848"/>
<stop offset="0.8045" stop-color="#9698FF" stop-opacity="0"/>
</radialGradient>
<radialGradient id="paint28_radial_18_3493" cx="0" cy="0" r="1" gradientUnits="userSpaceOnUse" gradientTransform="translate(1061.87 317.688) rotate(-29.324) scale(2.97945 227.734)">
<stop stop-color="#FAFAFA"/>
<stop offset="0.0469493" stop-color="#EFF2FA"/>
<stop offset="0.0982115" stop-color="#E8EDFA"/>
<stop offset="0.1217" stop-color="#E1E6FA" stop-opacity="0.9668"/>
<stop offset="0.2262" stop-color="#C6C9FC" stop-opacity="0.8188"/>
<stop offset="0.3388" stop-color="#B1B4FD" stop-opacity="0.6593"/>
<stop offset="0.4619" stop-color="#A2A4FE" stop-opacity="0.4851"/>
<stop offset="0.6033" stop-color="#999BFF" stop-opacity="0.2848"/>
<stop offset="0.8045" stop-color="#9698FF" stop-opacity="0"/>
</radialGradient>
<radialGradient id="paint29_radial_18_3493" cx="0" cy="0" r="1" gradientUnits="userSpaceOnUse" gradientTransform="translate(1028.6 396.198) rotate(-28.5952) scale(2.97905 227.765)">
<stop stop-color="#FAFAFA"/>
<stop offset="0.0469493" stop-color="#EFF2FA"/>
<stop offset="0.0982115" stop-color="#E8EDFA"/>
<stop offset="0.1217" stop-color="#E1E6FA" stop-opacity="0.9668"/>
<stop offset="0.2262" stop-color="#C6C9FC" stop-opacity="0.8188"/>
<stop offset="0.3388" stop-color="#B1B4FD" stop-opacity="0.6593"/>
<stop offset="0.4619" stop-color="#A2A4FE" stop-opacity="0.4851"/>
<stop offset="0.6033" stop-color="#999BFF" stop-opacity="0.2848"/>
<stop offset="0.8045" stop-color="#9698FF" stop-opacity="0"/>
</radialGradient>
<radialGradient id="paint30_radial_18_3493" cx="0" cy="0" r="1" gradientUnits="userSpaceOnUse" gradientTransform="translate(956.678 435.924) rotate(-28.3986) scale(2.97971 227.715)">
<stop stop-color="#FAFAFA"/>
<stop offset="0.0469493" stop-color="#EFF2FA"/>
<stop offset="0.0982115" stop-color="#E8EDFA"/>
<stop offset="0.1217" stop-color="#E1E6FA" stop-opacity="0.9668"/>
<stop offset="0.2262" stop-color="#C6C9FC" stop-opacity="0.8188"/>
<stop offset="0.3388" stop-color="#B1B4FD" stop-opacity="0.6593"/>
<stop offset="0.4619" stop-color="#A2A4FE" stop-opacity="0.4851"/>
<stop offset="0.6033" stop-color="#999BFF" stop-opacity="0.2848"/>
<stop offset="0.8045" stop-color="#9698FF" stop-opacity="0"/>
</radialGradient>
<radialGradient id="paint31_radial_18_3493" cx="0" cy="0" r="1" gradientUnits="userSpaceOnUse" gradientTransform="translate(1195.04 425.451) rotate(-28.5782) scale(1.99321 227.655)">
<stop stop-color="#FAFAFA"/>
<stop offset="0.0469493" stop-color="#EFF2FA"/>
<stop offset="0.0982115" stop-color="#E8EDFA"/>
<stop offset="0.1217" stop-color="#E1E6FA" stop-opacity="0.9668"/>
<stop offset="0.2262" stop-color="#C6C9FC" stop-opacity="0.8188"/>
<stop offset="0.3388" stop-color="#B1B4FD" stop-opacity="0.6593"/>
<stop offset="0.4619" stop-color="#A2A4FE" stop-opacity="0.4851"/>
<stop offset="0.6033" stop-color="#999BFF" stop-opacity="0.2848"/>
<stop offset="0.8045" stop-color="#9698FF" stop-opacity="0"/>
</radialGradient>
<radialGradient id="paint32_radial_18_3493" cx="0" cy="0" r="1" gradientUnits="userSpaceOnUse" gradientTransform="translate(1196.82 423.276) rotate(-117.531) scale(2.97963 227.722)">
<stop stop-color="#FAFAFA"/>
<stop offset="0.0469493" stop-color="#EFF2FA"/>
<stop offset="0.0982115" stop-color="#E8EDFA"/>
<stop offset="0.1217" stop-color="#E1E6FA" stop-opacity="0.9668"/>
<stop offset="0.2262" stop-color="#C6C9FC" stop-opacity="0.8188"/>
<stop offset="0.3388" stop-color="#B1B4FD" stop-opacity="0.6593"/>
<stop offset="0.4619" stop-color="#A2A4FE" stop-opacity="0.4851"/>
<stop offset="0.6033" stop-color="#999BFF" stop-opacity="0.2848"/>
<stop offset="0.8045" stop-color="#9698FF" stop-opacity="0"/>
</radialGradient>
<radialGradient id="paint33_radial_18_3493" cx="0" cy="0" r="1" gradientUnits="userSpaceOnUse" gradientTransform="translate(1228.81 508.835) rotate(-124.752) scale(2.9796 227.723)">
<stop stop-color="#FAFAFA"/>
<stop offset="0.0469493" stop-color="#EFF2FA"/>
<stop offset="0.0982115" stop-color="#E8EDFA"/>
<stop offset="0.1217" stop-color="#E1E6FA" stop-opacity="0.9668"/>
<stop offset="0.2262" stop-color="#C6C9FC" stop-opacity="0.8188"/>
<stop offset="0.3388" stop-color="#B1B4FD" stop-opacity="0.6593"/>
<stop offset="0.4619" stop-color="#A2A4FE" stop-opacity="0.4851"/>
<stop offset="0.6033" stop-color="#999BFF" stop-opacity="0.2848"/>
<stop offset="0.8045" stop-color="#9698FF" stop-opacity="0"/>
</radialGradient>
<radialGradient id="paint34_radial_18_3493" cx="0" cy="0" r="1" gradientUnits="userSpaceOnUse" gradientTransform="translate(1324.61 542.672) rotate(107.255) scale(16.9052 19.7933)">
<stop stop-color="#FAFAFA"/>
<stop offset="0.0093946" stop-color="#F2E1F7"/>
<stop offset="0.0318941" stop-color="#E1AAF1"/>
<stop offset="0.0528121" stop-color="#D47EEC"/>
<stop offset="0.0714933" stop-color="#CA5FE9"/>
<stop offset="0.0872582" stop-color="#C44CE7"/>
<stop offset="0.0982115" stop-color="#C245E6"/>
<stop offset="0.1614" stop-color="#B85BEC" stop-opacity="0.9105"/>
<stop offset="0.2599" stop-color="#AC77F3" stop-opacity="0.7711"/>
<stop offset="0.3659" stop-color="#A28DF8" stop-opacity="0.621"/>
<stop offset="0.4818" stop-color="#9B9DFC" stop-opacity="0.4568"/>
<stop offset="0.615" stop-color="#97A6FE" stop-opacity="0.2682"/>
<stop offset="0.8045" stop-color="#96A9FF" stop-opacity="0"/>
</radialGradient>
<radialGradient id="paint35_radial_18_3493" cx="0" cy="0" r="1" gradientUnits="userSpaceOnUse" gradientTransform="translate(930.994 231.492) rotate(107.255) scale(20.7858 24.3369)">
<stop stop-color="#FAFAFA"/>
<stop offset="0.0093946" stop-color="#F2E1F7"/>
<stop offset="0.0318941" stop-color="#E1AAF1"/>
<stop offset="0.0528121" stop-color="#D47EEC"/>
<stop offset="0.0714933" stop-color="#CA5FE9"/>
<stop offset="0.0872582" stop-color="#C44CE7"/>
<stop offset="0.0982115" stop-color="#C245E6"/>
<stop offset="0.1614" stop-color="#B85BEC" stop-opacity="0.9105"/>
<stop offset="0.2599" stop-color="#AC77F3" stop-opacity="0.7711"/>
<stop offset="0.3659" stop-color="#A28DF8" stop-opacity="0.621"/>
<stop offset="0.4818" stop-color="#9B9DFC" stop-opacity="0.4568"/>
<stop offset="0.615" stop-color="#97A6FE" stop-opacity="0.2682"/>
<stop offset="0.8045" stop-color="#96A9FF" stop-opacity="0"/>
</radialGradient>
<radialGradient id="paint36_radial_18_3493" cx="0" cy="0" r="1" gradientUnits="userSpaceOnUse" gradientTransform="translate(1094.03 373.282) rotate(-169.267) scale(8.60259 9.0871)">
<stop stop-color="white"/>
<stop offset="1"/>
</radialGradient>
<radialGradient id="paint37_radial_18_3493" cx="0" cy="0" r="1" gradientUnits="userSpaceOnUse" gradientTransform="translate(1142.17 455.109) rotate(-169.266) scale(8.60259 9.08709)">
<stop stop-color="white"/>
<stop offset="1"/>
</radialGradient>
<radialGradient id="paint38_radial_18_3493" cx="0" cy="0" r="1" gradientUnits="userSpaceOnUse" gradientTransform="translate(1190.93 536.229) rotate(-169.266) scale(8.60259 9.08709)">
<stop stop-color="white"/>
<stop offset="1"/>
</radialGradient>
<radialGradient id="paint39_radial_18_3493" cx="0" cy="0" r="1" gradientUnits="userSpaceOnUse" gradientTransform="translate(1047.87 294.62) rotate(-169.267) scale(8.60259 9.0871)">
<stop stop-color="white"/>
<stop offset="1"/>
</radialGradient>
<radialGradient id="paint40_radial_18_3493" cx="0" cy="0" r="1" gradientUnits="userSpaceOnUse" gradientTransform="translate(1003.02 217.595) rotate(-169.267) scale(8.60259 9.0871)">
<stop stop-color="white"/>
<stop offset="1"/>
</radialGradient>
<radialGradient id="paint41_radial_18_3493" cx="0" cy="0" r="1" gradientUnits="userSpaceOnUse" gradientTransform="translate(957.182 142.391) rotate(-169.266) scale(8.60259 9.08709)">
<stop stop-color="white"/>
<stop offset="1"/>
</radialGradient>
<radialGradient id="paint42_radial_18_3493" cx="0" cy="0" r="1" gradientUnits="userSpaceOnUse" gradientTransform="translate(1196.59 332.068) rotate(-169.266) scale(5.67033 5.98967)">
<stop stop-color="white"/>
<stop offset="1"/>
</radialGradient>
<radialGradient id="paint43_radial_18_3493" cx="0" cy="0" r="1" gradientUnits="userSpaceOnUse" gradientTransform="translate(1155.99 263.741) rotate(-169.267) scale(5.67031 5.98967)">
<stop stop-color="white"/>
<stop offset="1"/>
</radialGradient>
<radialGradient id="paint44_radial_18_3493" cx="0" cy="0" r="1" gradientUnits="userSpaceOnUse" gradientTransform="translate(1115.38 197.515) rotate(-169.267) scale(5.67036 5.98973)">
<stop stop-color="white"/>
<stop offset="1"/>
</radialGradient>
<radialGradient id="paint45_radial_18_3493" cx="0" cy="0" r="1" gradientUnits="userSpaceOnUse" gradientTransform="translate(1074.66 131.308) rotate(-169.267) scale(5.67031 5.98968)">
<stop stop-color="white"/>
<stop offset="1"/>
</radialGradient>
<radialGradient id="paint46_radial_18_3493" cx="0" cy="0" r="1" gradientUnits="userSpaceOnUse" gradientTransform="translate(1239.13 399.076) rotate(-169.266) scale(5.67033 5.98967)">
<stop stop-color="white"/>
<stop offset="1"/>
</radialGradient>
<radialGradient id="paint47_radial_18_3493" cx="0" cy="0" r="1" gradientUnits="userSpaceOnUse" gradientTransform="translate(1281.89 470.653) rotate(-169.266) scale(5.67038 5.98973)">
<stop stop-color="white"/>
<stop offset="1"/>
</radialGradient>
<radialGradient id="paint48_radial_18_3493" cx="0" cy="0" r="1" gradientUnits="userSpaceOnUse" gradientTransform="translate(1274.32 299.643) rotate(-169.266) scale(5.67033 5.98967)">
<stop stop-color="white"/>
<stop offset="1"/>
</radialGradient>
<radialGradient id="paint49_radial_18_3493" cx="0" cy="0" r="1" gradientUnits="userSpaceOnUse" gradientTransform="translate(1237.86 241.311) rotate(-169.266) scale(5.67033 5.98967)">
<stop stop-color="white"/>
<stop offset="1"/>
</radialGradient>
<radialGradient id="paint50_radial_18_3493" cx="0" cy="0" r="1" gradientUnits="userSpaceOnUse" gradientTransform="translate(1311.96 360.029) rotate(-169.266) scale(5.28219 5.57967)">
<stop stop-color="white"/>
<stop offset="1"/>
</radialGradient>
<radialGradient id="paint51_radial_18_3493" cx="0" cy="0" r="1" gradientUnits="userSpaceOnUse" gradientTransform="translate(1201.43 181.795) rotate(-169.266) scale(5.28217 5.57966)">
<stop stop-color="white"/>
<stop offset="1"/>
</radialGradient>
<radialGradient id="paint52_radial_18_3493" cx="0" cy="0" r="1" gradientUnits="userSpaceOnUse" gradientTransform="translate(1165.41 123.523) rotate(-169.267) scale(5.28217 5.57966)">
<stop stop-color="white"/>
<stop offset="1"/>
</radialGradient>
<clipPath id="clip0_18_3493">
<rect width="1441" height="750" fill="white"/>
</clipPath>
</defs>
</svg>
